<?xml version="1.0" standalone="no"?>
<!DOCTYPE svg PUBLIC "-//W3C//DTD SVG 20010904//EN"
 "http://www.w3.org/TR/2001/REC-SVG-20010904/DTD/svg10.dtd">
<svg version="1.0" xmlns="http://www.w3.org/2000/svg"
 width="512.000000pt" height="512.000000pt" viewBox="0 0 512.000000 512.000000"
 preserveAspectRatio="xMidYMid meet">

<g transform="translate(0.000000,512.000000) scale(0.100000,-0.100000)"
fill="#000000" stroke="none">
<path d="M2370 5113 c-367 -36 -649 -115 -949 -264 -667 -331 -1152 -930
-1340 -1657 -93 -358 -104 -771 -31 -1133 158 -780 667 -1443 1375 -1790 260
-127 483 -198 760 -241 187 -29 540 -31 720 -4 586 86 1088 342 1491 759 197
204 336 401 459 652 123 250 194 477 237 750 31 200 31 550 0 750 -43 277
-114 501 -242 760 -132 268 -279 473 -491 682 -201 198 -392 337 -631 459
-295 150 -580 235 -907 269 -122 13 -359 17 -451 8z m533 -178 c366 -57 691
-182 987 -380 565 -377 938 -968 1047 -1658 24 -157 24 -518 -1 -675 -95 -606
-382 -1121 -840 -1506 -338 -284 -773 -473 -1236 -538 -138 -19 -487 -16 -631
5 -584 87 -1109 372 -1484 809 -302 351 -487 757 -561 1230 -25 158 -25 518 0
676 146 934 770 1668 1656 1950 160 51 306 80 540 106 75 9 430 -4 523 -19z"/>
<path d="M1838 2882 c-658 -657 -688 -689 -688 -723 0 -52 28 -83 74 -83 35 0
63 26 686 649 l650 650 648 -647 c358 -359 660 -652 675 -658 21 -7 35 -6 56
5 32 16 41 33 41 78 0 28 -69 101 -693 724 -652 653 -694 693 -727 693 -33 0
-75 -40 -722 -688z"/>
</g>
</svg>
